<svg id="fin_btn_umb" xmlns="http://www.w3.org/2000/svg" width="36" height="36" viewBox="0 0 36 36">
  <metadata><?xpacket begin="﻿" id="W5M0MpCehiHzreSzNTczkc9d"?>
<x:xmpmeta xmlns:x="adobe:ns:meta/" x:xmptk="Adobe XMP Core 5.6-c138 79.159824, 2016/09/14-01:09:01        ">
   <rdf:RDF xmlns:rdf="http://www.w3.org/1999/02/22-rdf-syntax-ns#">
      <rdf:Description rdf:about=""/>
   </rdf:RDF>
</x:xmpmeta>
                                                                                                    
                                                                                                    
                                                                                                    
                                                                                                    
                                                                                                    
                                                                                                    
                                                                                                    
                                                                                                    
                                                                                                    
                                                                                                    
                                                                                                    
                                                                                                    
                                                                                                    
                                                                                                    
                                                                                                    
                                                                                                    
                                                                                                    
                                                                                                    
                                                                                                    
                                                                                                    
                           
<?xpacket end="w"?></metadata>
<defs>
    <style>
      .cls-1 {
        fill: #999;
        fill-rule: evenodd;
      }
    </style>
  </defs>
  <path id="圆角矩形_1468" data-name="圆角矩形 1468" class="cls-1" d="M1337,1419h-2c0-1.66-3.34-3-5-3s-4,1.34-4,3h-2c0-1.41-2.03-2.59-4-2.91V1432a3,3,0,0,1-6,0v-1a1,1,0,0,1,2,0v1a1,1,0,0,0,2,0v-15.91c-1.97.32-4,1.5-4,2.91h-2c0-1.66-2.34-3-4-3s-5,1.34-5,3h-2a17.984,17.984,0,0,1,17.01-17.95c0-.02-0.01-0.03-0.01-0.05v-1a1,1,0,0,1,2,0v1c0,0.02-.01.03-0.01,0.05A17.984,17.984,0,0,1,1337,1419Zm-18-16a16,16,0,0,0-15.61,12.51A9.054,9.054,0,0,1,1308,1414a6.766,6.766,0,0,1,5.05,2.51,8.307,8.307,0,0,1,11.9,0A6.766,6.766,0,0,1,1330,1414a9.054,9.054,0,0,1,4.61,1.51A16,16,0,0,0,1319,1403Z" transform="translate(-1301 -1399)"/>
</svg>
