<svg id="fin_btn_dd" xmlns="http://www.w3.org/2000/svg" width="32" height="38" viewBox="0 0 32 38">
  <metadata><?xpacket begin="﻿" id="W5M0MpCehiHzreSzNTczkc9d"?>
<x:xmpmeta xmlns:x="adobe:ns:meta/" x:xmptk="Adobe XMP Core 5.6-c138 79.159824, 2016/09/14-01:09:01        ">
   <rdf:RDF xmlns:rdf="http://www.w3.org/1999/02/22-rdf-syntax-ns#">
      <rdf:Description rdf:about=""/>
   </rdf:RDF>
</x:xmpmeta>
                                                                                                    
                                                                                                    
                                                                                                    
                                                                                                    
                                                                                                    
                                                                                                    
                                                                                                    
                                                                                                    
                                                                                                    
                                                                                                    
                                                                                                    
                                                                                                    
                                                                                                    
                                                                                                    
                                                                                                    
                                                                                                    
                                                                                                    
                                                                                                    
                                                                                                    
                                                                                                    
                           
<?xpacket end="w"?></metadata>
<defs>
    <style>
      .cls-1 {
        fill: #999;
        fill-rule: evenodd;
      }
    </style>
  </defs>
  <path id="形状_31_拷贝_2" data-name="形状 31 拷贝 2" class="cls-1" d="M1131,1436c-7.25,0-16-15.25-16-15.25V1407c4.98,0,12.12-9,16-9s12.05,9,16,9v13.75S1138.25,1436,1131,1436Zm14-28.18c-3.46,0-10.61-7.82-14-7.82s-9.64,7.82-14,7.82v11.94s7.67,14.2,14.02,14.27,13.98-14.26,13.98-14.27v-11.94Z" transform="translate(-1115 -1398)"/>
  <path id="圆角矩形_1451" data-name="圆角矩形 1451" class="cls-1" d="M1139.51,1413.94l-8.07,8.07a1,1,0,0,1-1.41,0l-4.54-4.54a1,1,0,0,1,1.41-1.41l3.83,3.83,7.37-7.36a0.978,0.978,0,0,1,1.41,0A1,1,0,0,1,1139.51,1413.94Z" transform="translate(-1115 -1398)"/>
</svg>
