<svg id="icon_msg" xmlns="http://www.w3.org/2000/svg" width="34" height="42" viewBox="0 0 34 42">
  <metadata><?xpacket begin="﻿" id="W5M0MpCehiHzreSzNTczkc9d"?>
<x:xmpmeta xmlns:x="adobe:ns:meta/" x:xmptk="Adobe XMP Core 5.6-c138 79.159824, 2016/09/14-01:09:01        ">
   <rdf:RDF xmlns:rdf="http://www.w3.org/1999/02/22-rdf-syntax-ns#">
      <rdf:Description rdf:about=""/>
   </rdf:RDF>
</x:xmpmeta>
                                                                                                    
                                                                                                    
                                                                                                    
                                                                                                    
                                                                                                    
                                                                                                    
                                                                                                    
                                                                                                    
                                                                                                    
                                                                                                    
                                                                                                    
                                                                                                    
                                                                                                    
                                                                                                    
                                                                                                    
                                                                                                    
                                                                                                    
                                                                                                    
                                                                                                    
                                                                                                    
                           
<?xpacket end="w"?></metadata>
<defs>
    <style>
      .cls-1 {
        fill: #fff;
        fill-rule: evenodd;
      }
    </style>
  </defs>
  <g id="组_1" data-name="组 1">
    <path id="椭圆_1468_拷贝" data-name="椭圆 1468 拷贝" class="cls-1" d="M698,1123H670a3.958,3.958,0,0,1-3-4c0-2.62,3-3.72,3-3.72V1104a13.992,13.992,0,0,1,11.75-13.8s0.084-2.2,2-2.2h0.5c1.916,0,2,2.2,2,2.2A13.992,13.992,0,0,1,698,1104v11.28s3,1.1,3,3.72A3.958,3.958,0,0,1,698,1123Zm-1-5a2,2,0,0,1-2-2v-12a11,11,0,0,0-22,0v12a2,2,0,0,1-2,2h0a1,1,0,0,0,0,2h26a1,1,0,0,0,0-2h0Zm-13,9a2,2,0,0,0,2-2h3a5,5,0,0,1-10,0h3A2,2,0,0,0,684,1127Z" transform="translate(-667 -1088)"/>
  </g>
</svg>
