<svg id="icon_user" xmlns="http://www.w3.org/2000/svg" width="52" height="52" viewBox="0 0 52 52">
  <metadata><?xpacket begin="﻿" id="W5M0MpCehiHzreSzNTczkc9d"?>
<x:xmpmeta xmlns:x="adobe:ns:meta/" x:xmptk="Adobe XMP Core 5.6-c138 79.159824, 2016/09/14-01:09:01        ">
   <rdf:RDF xmlns:rdf="http://www.w3.org/1999/02/22-rdf-syntax-ns#">
      <rdf:Description rdf:about=""/>
   </rdf:RDF>
</x:xmpmeta>
                                                                                                    
                                                                                                    
                                                                                                    
                                                                                                    
                                                                                                    
                                                                                                    
                                                                                                    
                                                                                                    
                                                                                                    
                                                                                                    
                                                                                                    
                                                                                                    
                                                                                                    
                                                                                                    
                                                                                                    
                                                                                                    
                                                                                                    
                                                                                                    
                                                                                                    
                                                                                                    
                           
<?xpacket end="w"?></metadata>
<defs>
    <style>
      .cls-1 {
        fill: #fff;
        fill-rule: evenodd;
      }
    </style>
  </defs>
  <path id="椭圆_2_拷贝_2" data-name="椭圆 2 拷贝 2" class="cls-1" d="M56,1135a26,26,0,1,1,26-26A26,26,0,0,1,56,1135Zm0-49a23,23,0,1,0,23,23A23,23,0,0,0,56,1086Z" transform="translate(-30 -1083)"/>
  <path id="椭圆_5_拷贝_4" data-name="椭圆 5 拷贝 4" class="cls-1" d="M70.014,1119.22c0,2.77-3.131,5.76-14.014,5.78-10.883-.02-14.014-3.01-14.014-5.78,0-6.02,11.31-6.92,9.014-9.22a11.867,11.867,0,0,1-2.952-7.52c0-4.03,3.554-8.43,7.952-8.48,4.4,0.05,7.953,4.45,7.952,8.48A11.867,11.867,0,0,1,61,1110C58.7,1112.3,70.014,1113.2,70.014,1119.22Zm-11.669-9.47c1.759-2.84,2.487-4.26,2.6-6.75,0.12-2.67-1.431-6-4.886-6-0.02,0-.038.01-0.058,0.01s-0.038-.01-0.059-0.01c-3.494,0-5.063,3.33-4.941,6,0.113,2.49.849,3.91,2.628,6.75,2.588,4.12-7.776,6.37-8.628,8.25s2.264,4,10.941,4h0.117c8.58,0,11.661-2.12,10.818-4S55.786,1113.87,58.345,1109.75Z" transform="translate(-30 -1083)"/>
</svg>
